<?xml version="1.0" encoding="utf-8"?>
<!-- Generator: Adobe Illustrator 25.4.1, SVG Export Plug-In . SVG Version: 6.00 Build 0)  -->
<svg version="1.1" id="Layer_1" xmlns="http://www.w3.org/2000/svg" xmlns:xlink="http://www.w3.org/1999/xlink" x="0px" y="0px"
	 viewBox="0 0 320 320" style="enable-background:new 0 0 320 320;" xml:space="preserve">
<style type="text/css">
	.st0{fill:none;stroke:#000000;stroke-width:32;stroke-miterlimit:10;}
	.st1{fill:#FFFFFF;stroke:#000000;stroke-width:9;stroke-miterlimit:10;}
	.st2{fill:none;stroke:#000000;stroke-width:40;stroke-miterlimit:10;}
	.st3{fill:#FFFFFF;}
	.st4{font-family:'FuturaBT-ExtraBlackCondensed';}
	.st5{font-size:58.6414px;}
	.st6{font-size:47.87px;}
	.st7{font-size:83.5946px;}
	.st8{font-size:47.2803px;}
	.st9{font-family:'Futura-CondensedExtraBold';}
	.st10{font-size:94.96px;}
	.st11{letter-spacing:1;}
	.st12{fill:none;stroke:#000000;stroke-width:3;stroke-miterlimit:10;}
	.st13{stroke:#000000;stroke-width:11;stroke-miterlimit:10;}
</style>
<polygon class="st0" points="141.8,246.3 132.6,264.1 115.9,247.1 "/>
<path class="st1" d="M304.1,44.6c-5.1-4.1-10.3-8.4-15.2-12.8c-5-4.4-9.7-9.2-14-14.3c-6.8,1.4-13.6,3.3-20.2,5.6
	c-6.7,2.3-13.3,4.9-19.9,7.6l14.4,2.9l-0.4,2.3l-0.2,1.1l0.2-1.1c-2.5,14.9-1.6,12.3-3.6,26.6s-3.9,28.3-6.2,42.2s-5,27.5-8.4,40.8
	c-3.2,13-7.4,25.8-12.5,38.2c-5.1,12.1-11.2,23.3-18.6,32.8s-16.1,17.1-26.1,22.2c-10.4,5.1-21.7,8-33.2,8.4l2,41.3
	c8.6-0.4,17.1-1.6,25.5-3.7c8.6-2.1,16.9-5.2,24.7-9.3c7.9-4,15.2-9,21.9-14.8c6.5-5.6,12.5-11.8,17.8-18.6
	c10.4-13.3,18.1-27.8,24.3-42.3c5.9-14.3,10.7-29.1,14.5-44.1c7.5-29.5,11.7-58.9,15.5-87.7c2-14.3,1.3-12.8,3.6-26.4l-0.6,3l0.2-1
	l0.4-2L304.1,44.6z"/>
<path class="st2" d="M133.6,54.1c63.1,0,113,50.7,113,113.8s-56.9,97.4-120,99.3"/>
<path class="st3" d="M134.6,18.3L134.6,18.3c-6.6,18.9,1.4,22.9,14.6,21.9c2.8-0.2,5.6,0.5,8.4,1c61.6,11.6,105.7,67.3,100.5,127.1
	c-5.7,65.9-56.9,117.3-123,117.5c-49.5,0.2-99-0.1-148.5,0.2c-3.4,0-6.9,3.1-10.3,4.7c3.4,1.4,6.7,3.9,10.1,3.9
	c51.5,0.2,103.1,1.5,154.5-0.2c53.3-1.9,93.1-32.2,114.6-81c21.9-49.7,14.2-96.9-21.1-138.6c-23.8-28.1-55.5-41.7-92.9-44.5
	c0-5.6,0.4-10.8-0.2-15.9c-0.3-2.8-2.1-5.5-3.3-8.2c-2.4,1.1-5.3,1.6-7.3,3.3c-14.3,12.3-28.2,25.1-42.8,37.2c-7.3,6-5.6,9.8,0.6,15
	c13.6,11.4,26.7,23.3,40.1,34.8c2.8,2.4,6.1,4.2,11.5,7.7c0.9-10.4,1.6-18.1,2.4-26.8c5.9,1,11.1,1.5,16,2.8
	c40.2,10.8,66.5,49.8,61.4,90.7s-39.7,71.5-81.6,71.9c-49.5,0.5-99,0.1-148.5,0.2c-3.2,0-6.6-0.3-9.6,0.6c-1.7,0.5-2.8,3.2-4.1,4.9
	c1.5,1.1,2.8,2.8,4.5,3.2c2.3,0.6,4.8,0.3,7.2,0.3c49.5,0,99,0.2,148.5,0c47.8-0.2,85.3-32,92.4-79.3c7.7-51.5-33.7-101.6-85.5-104
	c-8-0.4-11.3,2-10.5,10c0.2,2.2-0.3,4.4-0.7,8.9L93.6,53.9L134.6,18.3z M27.1,228.2l4.6-1.4c-0.8-3.6-1-7.6-2.6-10.9
	C4,161.5,15.4,106.5,59.7,67.3c2.5-2.2,3.6-6.2,5.3-9.3c-3.7,0.9-8.4,0.7-10.9,2.9c-38,32.4-52.5,73.8-44.9,122.8
	C11.8,199.8,16.5,215.4,27.1,228.2z M44.5,160.7c0.8,23.9,8.3,44.7,24.2,61.9c2.1,2.3,6.4,2.6,9.7,3.8c-0.9-3-0.9-6.7-2.7-8.9
	c-33.1-41.6-29.3-87.6,10.1-122.8c2.2-2,2.9-5.6,4.3-8.4c-3.4,0.6-7.7,0.1-10.1,2C56.5,106.8,45.3,131.6,44.5,160.7L44.5,160.7z"/>
<path d="M134.7,18.2l-41,35.7c12.8,11.2,24.2,21.3,37.9,33.2c0.4-4.5,1.4-6.4,1.2-8.6c-0.8-8,2.6-10.3,10.5-10
	c51.8,2.4,93.2,52.5,85.5,104c-7.1,47.3-44.6,79.2-92.4,79.3c-49.5,0.2-99,0-148.5,0c-2.4,0-4.9,0.3-7.2-0.3c-1.7-0.4-3-2.1-4.5-3.2
	c1.4-1.7,2.4-4.3,4.1-4.9c3-0.9,6.4-0.5,9.6-0.6c49.5,0,99,0.3,148.5-0.2c41.9-0.4,76.5-30.8,81.6-71.9S198.8,91,158.6,80.1
	c-4.9-1.3-10.1-1.8-16-2.8c-0.8,8.8-1.4,16.4-2.4,26.8c-5.3-3.5-8.7-5.3-11.5-7.7C115.3,85,102.2,73.1,88.7,61.7
	c-6.2-5.2-7.9-9-0.6-15c14.6-12,28.5-24.9,42.9-37.2c1.9-1.7,4.8-2.2,7.3-3.3c1.1,2.7,3,5.4,3.3,8.2c0.5,5.1,0.2,10.3,0.2,15.9
	c37.4,2.8,69,16.4,92.9,44.5c35.3,41.6,43,88.9,21.1,138.6c-21.6,48.9-61.4,79.2-114.6,81c-51.4,1.8-103,0.5-154.5,0.2
	c-3.4,0-6.7-2.5-10.1-3.9c3.4-1.6,6.9-4.7,10.3-4.7c49.5-0.3,99-0.1,148.5-0.2c66.1-0.2,117.3-51.6,123-117.5
	c5.2-59.8-38.9-115.5-100.5-127.1c-2.8-0.5-5.6-1.2-8.4-1C135.9,41.1,128,37.1,134.7,18.2z"/>
<path d="M27.1,228.2c-10.7-12.8-15.4-28.4-17.9-44.5c-7.6-49,6.8-90.4,44.8-122.8c2.6-2.2,7.2-2,10.9-2.9c-1.7,3.2-2.8,7.1-5.3,9.3
	C15.4,106.5,4,161.5,29.2,215.9c1.5,3.3,1.8,7.3,2.6,10.9L27.1,228.2z"/>
<path d="M44.5,160.7c0.8-29.1,11.9-53.9,35.6-72.4c2.4-1.9,6.7-1.4,10.1-2c-1.4,2.9-2.1,6.4-4.3,8.4
	c-39.4,35.1-43.2,81.2-10.1,122.8c1.8,2.3,1.8,5.9,2.7,8.9c-3.3-1.2-7.6-1.5-9.7-3.8C52.8,205.4,45.3,184.6,44.5,160.7z"/>
<g>
	<text transform="matrix(1 0 0 1 7.2781 217.6223)" class="st4 st5">    </text>
	<text transform="matrix(1 0 0 1 76.9119 217.6223)" class="st4 st6">send</text>
	<text transform="matrix(1 0 0 1 7.2781 317.9377)" class="st4 st7">  </text>
</g>
<line class="st2" x1="156.2" y1="267.8" x2="-22.4" y2="267.1"/>
<text transform="matrix(1 0 0 1 86.8258 275.0342)" class="st3 st4 st8">agile</text>
<g>
	<text transform="matrix(1 0 0 1 167.8799 226.3098)" class="st3 st9 st10 st11">i</text>
	<text transform="matrix(1 0 0 1 167.8799 226.3098)" class="st12 st9 st10 st11">i</text>
	<text transform="matrix(1 0 0 1 196.8101 226.3098)" class="st3 st9 st10">T</text>
	<text transform="matrix(1 0 0 1 196.8101 226.3098)" class="st12 st9 st10">T</text>
</g>
<polygon class="st13" points="94.1,54.6 132.1,84.5 132.1,23.8 "/>
</svg>
