<svg id="Layer_1" data-name="Layer 1" xmlns="http://www.w3.org/2000/svg" viewBox="0 0 345.5 319.56"><defs><style>.cls-1,.cls-11,.cls-13,.cls-3{fill:none;}.cls-1,.cls-11,.cls-13,.cls-14,.cls-2,.cls-3{stroke:#000;stroke-miterlimit:10;}.cls-1{stroke-width:32px;}.cls-10,.cls-12,.cls-2,.cls-4,.cls-9{fill:#fff;}.cls-2{stroke-width:9px;}.cls-3{stroke-width:40px;}.cls-10,.cls-11,.cls-12,.cls-13,.cls-5,.cls-6,.cls-7,.cls-8,.cls-9{isolation:isolate;}.cls-6{font-size:47.8px;}.cls-6,.cls-7,.cls-8,.cls-9{font-family:FuturaBT-ExtraBlackCondensed, Futura Extra Black Condensed BT;font-weight:900;}.cls-7{font-size:39.02px;}.cls-8{font-size:68.14px;}.cls-9{font-size:30px;}.cls-10,.cls-11,.cls-12,.cls-13{font-size:94.96px;font-family:Futura-CondensedExtraBold, Futura;font-weight:800;}.cls-10,.cls-11{letter-spacing:0.02em;}.cls-11,.cls-13{stroke-width:3px;}.cls-14{stroke-width:11px;}</style></defs><polygon class="cls-1" points="165.52 240.09 156.34 257.92 139.7 240.87 165.52 240.09"/><path class="cls-2" d="M301,51.5c-5.14-4.1-10.27-8.41-15.19-12.83a136.78,136.78,0,0,1-14-14.28A145.29,145.29,0,0,0,251.64,30c-6.67,2.28-13.29,4.87-19.85,7.56l14.43,2.89-.44,2.29-.22,1.14.22-1.14c-2.5,14.87-1.65,12.26-3.6,26.57s-3.89,28.35-6.24,42.22-5,27.53-8.41,40.81A273.17,273.17,0,0,1,215,190.59c-5.07,12.07-11.2,23.31-18.65,32.79s-16.15,17.12-26.12,22.19A81.45,81.45,0,0,1,137,254l2,41.31a131.48,131.48,0,0,0,25.5-3.69,114.89,114.89,0,0,0,24.74-9.27,112.59,112.59,0,0,0,21.92-14.76,130.4,130.4,0,0,0,17.76-18.63c10.44-13.3,18.14-27.76,24.27-42.32a313.16,313.16,0,0,0,14.46-44.1c7.46-29.49,11.66-58.91,15.55-87.66,1.95-14.35,1.3-12.8,3.61-26.36l-.58,3,.19-1,.39-2Z" transform="translate(26.84 -13.08)"/><path class="cls-3" d="M130.5,61c63.1,0,113,50.65,113,113.75s-56.93,97.39-120,99.25" transform="translate(26.84 -13.08)"/><path class="cls-4" d="M131.49,25.14h0C124.93,44,132.88,48,146.08,47.08c2.75-.19,5.6.52,8.36,1,61.65,11.61,105.7,67.3,100.54,127.1-5.68,65.95-56.89,117.33-123,117.54-49.5.16-99-.06-148.49.25-3.44,0-6.87,3.07-10.3,4.7,3.37,1.35,6.74,3.85,10.11,3.87,51.51.23,103.06,1.55,154.51-.25,53.27-1.87,93.08-32.19,114.63-81,21.91-49.67,14.23-96.95-21.06-138.57-23.82-28.09-55.46-41.67-92.86-44.52,0-5.65.38-10.83-.16-15.92-.29-2.82-2.14-5.47-3.29-8.2-2.45,1.08-5.34,1.64-7.28,3.3C113.45,28.69,99.54,41.53,85,53.55c-7.28,6-5.57,9.85.62,15,13.56,11.38,26.68,23.28,40.1,34.82,2.8,2.4,6.14,4.17,11.47,7.71.92-10.42,1.6-18.08,2.37-26.83,5.91,1,11.09,1.46,16,2.78,40.22,10.82,66.5,49.75,61.41,90.72s-39.74,71.5-81.6,71.9c-49.49.47-99,.13-148.48.16-3.21,0-6.59-.33-9.57.55-1.7.51-2.77,3.16-4.13,4.85,1.48,1.12,2.82,2.79,4.48,3.23,2.27.6,4.79.3,7.2.3,49.49,0,99,.16,148.48,0,47.76-.18,85.29-32,92.36-79.34C233.4,127.86,192,77.76,140.2,75.4c-8-.36-11.31,2-10.51,10,.21,2.17-.31,4.4-.69,8.92L90.56,60.79ZM24.06,235.07l4.62-1.37c-.83-3.65-1-7.59-2.58-10.92C.92,168.39,12.26,113.32,56.61,74.19c2.55-2.25,3.6-6.19,5.34-9.35-3.69.9-8.36.67-10.94,2.87C13,100.16-1.48,141.51,6.16,190.54,8.67,206.65,13.39,222.28,24.06,235.07Zm17.36-67.52c.81,23.94,8.3,44.67,24.21,61.89,2.11,2.29,6.39,2.57,9.67,3.78-.85-3-.87-6.68-2.67-8.94C39.54,182.73,43.35,136.65,82.78,101.5c2.19-2,2.9-5.55,4.29-8.39-3.4.61-7.66.12-10.06,2-23.65,18.52-34.78,43.33-35.59,72.44Z" transform="translate(26.84 -13.08)"/><path d="M131.58,25.06l-41,35.73C103.34,71.94,114.83,82.07,128.5,94c.38-4.52,1.37-6.44,1.16-8.61-.8-8,2.55-10.35,10.51-10,51.84,2.37,93.2,52.47,85.51,104-7.07,47.35-44.6,79.16-92.36,79.34-49.49.19-99,0-148.48,0-2.41,0-4.93.3-7.2-.3-1.66-.44-3-2.11-4.48-3.23,1.36-1.69,2.43-4.34,4.13-4.85,3-.88,6.36-.54,9.57-.55,49.5,0,99,.31,148.48-.16,41.86-.4,76.49-30.8,81.6-71.9S195.75,97.84,155.53,87c-4.93-1.32-10.11-1.78-16-2.78-.77,8.75-1.45,16.41-2.37,26.83-5.33-3.54-8.67-5.31-11.47-7.71C112.25,91.87,99.13,80,85.57,68.59c-6.19-5.19-7.9-9-.62-15,14.59-12,28.5-24.86,42.86-37.17,1.94-1.66,4.83-2.22,7.28-3.3,1.15,2.73,3,5.38,3.29,8.2.54,5.09.16,10.27.16,15.92,37.4,2.85,69,16.43,92.86,44.52,35.29,41.62,43,88.9,21.06,138.57-21.55,48.85-61.36,79.17-114.63,81-51.45,1.8-103,.48-154.51.25-3.37,0-6.74-2.52-10.11-3.87,3.43-1.63,6.86-4.67,10.3-4.7,49.5-.31,99-.09,148.49-.25,66.09-.21,117.3-51.59,123-117.54,5.16-59.8-38.89-115.49-100.54-127.1-2.76-.52-5.61-1.23-8.36-1C132.85,48,124.89,44,131.58,25.06Z" transform="translate(26.84 -13.08)"/><path d="M24.06,235.07c-10.67-12.79-15.39-28.42-17.9-44.53C-1.48,141.51,13,100.16,51,67.71c2.58-2.2,7.25-2,10.94-2.87-1.74,3.16-2.79,7.1-5.34,9.35C12.26,113.32.92,168.39,26.1,222.78c1.54,3.33,1.75,7.27,2.58,10.92Z" transform="translate(26.84 -13.08)"/><path d="M41.42,167.55c.81-29.11,11.94-53.92,35.59-72.44,2.4-1.88,6.66-1.39,10.06-2C85.68,96,85,99.55,82.78,101.5c-39.43,35.15-43.24,81.23-10.15,122.78,1.8,2.26,1.82,5.93,2.67,8.94-3.28-1.21-7.56-1.49-9.67-3.78C49.72,212.22,42.23,191.49,41.42,167.55Z" transform="translate(26.84 -13.08)"/><g class="cls-5"><text class="cls-6" transform="translate(52.25 221.51)"><tspan xml:space="preserve">    </tspan></text><text class="cls-7" transform="translate(109.01 221.51)">send</text><text class="cls-8" transform="translate(52.25 303.28)"><tspan xml:space="preserve">  </tspan></text></g><line class="cls-3" x1="179.96" y1="261.56" x2="1.34" y2="260.92"/><text class="cls-9" transform="translate(163.46 256.13)">agile</text><g class="cls-5"><text class="cls-10" transform="translate(197.63 223.09)">i</text><text class="cls-11" transform="translate(197.63 223.09)">i</text><text class="cls-12" transform="translate(226.56 223.09)">T</text><text class="cls-13" transform="translate(226.56 223.09)">T</text></g><polygon class="cls-14" points="117.84 48.42 155.84 78.23 155.84 17.61 117.84 48.42"/></svg>